<svg xmlns="http://www.w3.org/2000/svg" width="64" height="64" viewBox="0 0 64 64"><path d="M29.612 5.174c-.53.548-27.542 27.574-28.387 28.488-1.006 1.088 1.706 4.113 3.233 2.88l2.155-2.163s-.033 24.21 0 24.913c.033.704.294.968.978.968h19.065s.804-.095.804-1.009v-19.656c0-.519.164-.813.79-.813s6.358-.016 6.906 0 .642.203.642.703c-.004 3.537-.018 19.249.002 19.79.021.61.239.985.978.985.562 0 18.094-.034 18.957 0s.912-.264.912-1.162v-24.719s1.313 1.315 2.499 2.508 4.408-1.728 3.087-3.054-28.161-28.269-28.697-28.775c-.755-.712-2.956-.885-3.924.116zm3.572 5.66c.791.81 19.293 19.375 19.293 19.375v24.755s-.114.792-.75.794c-.635.002-10.636.037-11.14-.002-.598-.047-.619-.024-.619-.739 0-.714-.009-17.006-.027-17.631-.031-1.037.185-2.167-1.378-2.208-.847-.022-13.012-.003-13.75.021-.739.023-1.522.596-1.522 1.625v18.205c0 .378-.042.728-.607.728-.484 0-10.679.017-11.265 0-.586-.018-.635-.282-.635-.705v-24.842s18.48-18.572 19.2-19.29c1.204-1.201 2.141-1.17 3.2-.086z" fill="#949494"/></svg>
