<svg xmlns="http://www.w3.org/2000/svg" width="64" height="64" viewBox="0 0 64 64"><g><path d="M58.184 61.28l3.831-3.83c.506-.505.506-1.314 0-1.819l-18.862-18.862-5.65 5.651 18.861 18.86c.505.507 1.315.507 1.82 0z" fill="#fff"/><path d="M58.184 61.28" fill="#3C92CA"/><path d="M22.27 9.351c-6.726 0-12.199 5.472-12.199 12.199 0 .632.518 1.149 1.151 1.149.632 0 1.15-.517 1.15-1.149 0-5.462 4.437-9.899 9.898-9.899.632 0 1.15-.519 1.15-1.151 0-.645-.519-1.149-1.15-1.149zm0 0M43.962 35.959c-.442-.441-1.176-.441-1.617 0l-2.011 2.012-2.667-2.668c3.273-3.655 5.271-8.482 5.271-13.767 0-11.39-9.267-20.656-20.656-20.656-11.39 0-20.669 9.267-20.669 20.656 0 11.391 9.267 20.657 20.656 20.657 5.284 0 10.101-1.998 13.767-5.273l2.667 2.669-2.01 2.01c-.215.214-.341.505-.341.81 0 .303.126.593.341.809l17.938 17.938c.709.71 1.646 1.1 2.644 1.1s1.934-.39 2.642-1.1l1.983-1.986c.709-.708 1.1-1.643 1.1-2.643 0-.998-.391-1.934-1.1-2.64l-17.938-17.928zm-40.048-14.423c0-10.125 8.243-18.368 18.369-18.368s18.367 8.243 18.367 18.368c0 10.126-8.242 18.369-18.368 18.369s-18.368-8.242-18.368-18.369zm56.368 36.027l-1.984 1.986c-.279.278-.632.431-1.023.431-.393 0-.746-.152-1.023-.431l-17.13-17.13 4.032-4.032 17.129 17.129c.278.278.43.632.43 1.024-.001.392-.165.759-.431 1.023zm0 0" fill="#FF5A5F"/></g></svg>