<svg xmlns="http://www.w3.org/2000/svg" width="64" height="64" viewBox="0 0 64 64"><g><path d="M58.179 61.458" fill="#3C92CA"/><path d="M22.23 9.478c-6.732 0-12.21 5.478-12.21 12.21 0 .633.519 1.151 1.151 1.151s1.151-.519 1.151-1.151c0-5.467 4.442-9.908 9.908-9.908.633 0 1.152-.519 1.152-1.151 0-.645-.519-1.151-1.152-1.151zm0 0M43.944 36.114c-.443-.443-1.178-.443-1.619 0l-2.014 2.011-2.669-2.669c3.276-3.658 5.276-8.491 5.276-13.781.001-11.4-9.274-20.675-20.675-20.675-11.402 0-20.689 9.275-20.689 20.675 0 11.401 9.275 20.677 20.676 20.677 5.29 0 10.111-2 13.78-5.277l2.67 2.67-2.012 2.012c-.216.215-.342.506-.342.811 0 .303.126.594.342.81l17.956 17.955c.708.709 1.645 1.101 2.645 1.101.999 0 1.936-.392 2.644-1.101l1.986-1.987c.709-.709 1.101-1.645 1.101-2.645s-.392-1.936-1.102-2.645l-17.954-17.942zm-40.087-14.439c0-10.135 8.25-18.385 18.386-18.385 10.135 0 18.386 8.25 18.386 18.385 0 10.136-8.251 18.386-18.386 18.386-10.136.001-18.386-8.25-18.386-18.386zm56.422 36.063l-1.987 1.987c-.277.277-.632.43-1.023.43-.393 0-.747-.152-1.025-.43l-17.147-17.146 4.037-4.036 17.146 17.146c.278.278.431.634.431 1.024-.001.392-.166.76-.432 1.025zm0 0" fill="#949494"/></g></svg>