<svg xmlns="http://www.w3.org/2000/svg" xmlns:xlink="http://www.w3.org/1999/xlink" width="64" height="64" viewBox="0 0 64 64"><g><defs><path id="a" d="M.665 3.207h62.671v58.191h-62.671z"/></defs><clipPath id="b"><use xlink:href="#a" overflow="visible"/></clipPath><path d="M63.24 49.147l-.012-.114-.025-.115-.027-.103-.051-.102-.051-.103-.063-.089-.064-.089-.09-.077-.076-.076-.102-.064-.09-.051-14.076-6.942-.127-.051c-.242-.09-6.049-2.119-10.797.013l-10.476 3.791-.09.037c-1.505.689-2.296 2.233-1.978 3.854.319 1.607 1.62 2.743 3.253 2.82h.026c.102 0 .562-.025 5.334-.332 2.08-.128 4.225-.268 4.414-.281.6-.025 1.1-.511 1.111-1.122.014-.638-.484-1.175-1.135-1.188-.064 0-.064 0-4.531.282-2.233.14-4.735.306-5.155.331-.804-.063-.996-.74-1.047-.943-.089-.435.039-1.008.638-1.302l10.465-3.791.09-.038c3.674-1.672 8.473-.166 9.047.013l6.266 3.089-3.445 8.129c-1.697-1.047-3.764-1.328-5.678-.754l-14.064 4.225c-1.671.511-3.521.319-5.066-.523l-22.025-11.932c-.792-.434-.536-1.187-.473-1.34.077-.204.409-.842 1.213-.625l17.112 5.704c.6.205 1.264-.128 1.468-.728.204-.613-.128-1.264-.728-1.468l-17.15-5.729-.063-.013c-1.697-.459-3.344.358-3.994 1.991-.664 1.646-.039 3.382 1.519 4.237l22.038 11.97c2.081 1.136 4.568 1.392 6.828.702l14.063-4.224c1.289-.383 2.68-.204 3.816.522l7.17 4.518.104.052.025.013h.012l.053.013.088.038.051.012.09.026.051.013.141.013.154-.013.049-.013.104-.026.051-.012.09-.038.051-.025.09-.052.051-.025.076-.051.051-.038.064-.064.051-.051.051-.076.039-.052.012-.013.014-.024.051-.104 5.104-10.872.039-.103.039-.101.012-.116.014-.114.006-.116zm-2.679.587l-4.07 8.665-4.123-2.603 3.535-8.347 4.658 2.285zm0 0" clip-path="url(#b)" fill="#fff"/><path d="M31.394 40.579c10.286 0 18.644-8.372 18.644-18.645s-8.371-18.657-18.644-18.657c-10.273 0-18.657 8.372-18.657 18.657-.001 10.286 8.371 18.645 18.657 18.645zm0-34.979c9.01 0 16.333 7.325 16.333 16.335 0 9.009-7.323 16.334-16.333 16.334s-16.335-7.325-16.335-16.334c0-9.01 7.325-16.335 16.335-16.335zm0 0" fill="#fff"/><path d="M38.021 12.476l-4.855 8.261s3.168.008 3.826 0 .623 1.825 0 1.825h-4.459v2.516s3.832.005 4.459 0 .623 1.849 0 1.849h-4.459s.039 2.898 0 3.663-2.293.767-2.293 0v-3.663s-4.029.042-4.622 0-.688-1.849 0-1.849h4.622v-2.516s-3.904.021-4.622 0-.688-1.825 0-1.825h3.943s-4.499-7.601-4.809-8.261c.064-1.098 2.169-1.139 2.586 0 .51.935 3.612 6.705 4.096 7.805h.047c.163-.452.612-1.365 1.346-2.738 0 0 2.238-4.132 2.75-5.067.386-1.16 2.343-1.056 2.444 0z" fill="#fff"/></g></svg>
