<svg xmlns="http://www.w3.org/2000/svg" width="64" height="64" viewBox="0 0 64 64"><g><path d="M32 1.551c-16.339 0-29.638 13.299-29.638 29.637 0 7.79 3.039 14.906 7.979 20.191.103.137.224.274.362.38 5.389 5.579 12.954 9.067 21.296 9.067 16.338 0 29.637-13.3 29.637-29.638.001-16.338-13.298-29.637-29.636-29.637zm-17.306 49.671c8.048-2.624 10.88-5.819 11.864-7.892 1.486.673 3.145 1.019 5.01 1.053h.379c2.004-.034 3.801-.449 5.372-1.227.915 2.056 3.68 5.373 11.969 8.065-4.646 4.008-10.691 6.461-17.306 6.461-6.597.001-12.642-2.436-17.288-6.46zm17.116-9.964h-.104c-2.747-.034-4.836-.897-6.391-2.66-3.938-4.421-3.074-12.85-3.074-12.936v-.104c.415-9.154 7.185-9.862 9.258-9.862h.536c2.056 0 8.824.708 9.257 9.862v.104c.017.085.864 8.497-3.074 12.936-1.572 1.762-3.662 2.626-6.408 2.66zm20.017 7.477c-11.433-3.316-11.814-7.375-11.814-7.41v.089h-.172c.24-.225.484-.467.708-.727 4.715-5.32 3.938-14.439 3.851-15.303-.448-9.465-6.943-12.832-12.383-12.832h-.553c-5.423 0-11.916 3.35-12.383 12.814-.086.846-.881 9.983 3.852 15.302.293.329.622.639.933.932-.26.864-1.953 4.269-11.728 7.117-4.146-4.68-6.667-10.812-6.667-17.548 0-14.611 11.883-26.512 26.512-26.512s26.512 11.883 26.512 26.512c.017 6.738-2.523 12.887-6.668 17.566zm0 0" fill="#949494"/><path d="M47.665 84.521"/></g></svg>